<svg xmlns="http://www.w3.org/2000/svg" width="428.343" height="108.912"><g data-name="Group 26"><g data-name="Group 24"><g data-name="Group 11"><path data-name="Path 16" d="M151.574.683a5.017 5.017 0 012.5.445 8.043 8.043 0 012.143 1.45 6.013 6.013 0 011.447 2.136 6.811 6.811 0 01.5 2.539v11.444a23.211 23.211 0 017.23-2.338 25.289 25.289 0 017.432 0 25.652 25.652 0 017.179 2.192 25.392 25.392 0 016.484 4.428 25.04 25.04 0 015.239 7.716 24.015 24.015 0 011.747 9.407 22.853 22.853 0 01-1.944 9.362 25.166 25.166 0 01-5.241 7.663 24.383 24.383 0 01-7.679 5.176 23.171 23.171 0 01-9.277 1.887 22.481 22.481 0 01-9.177-1.938 25.7 25.7 0 01-7.726-5.226 25.311 25.311 0 01-5.34-7.663 22.056 22.056 0 01-2-9.261V6.758a5.052 5.052 0 01.6-2.347 7.663 7.663 0 011.5-1.986 6.949 6.949 0 012.042-1.344 4.762 4.762 0 012.345-.4m6.585 39.419a10.643 10.643 0 00.9 4.335 10.936 10.936 0 002.444 3.529 12.332 12.332 0 003.544 2.395 10.318 10.318 0 004.287.89 10.427 10.427 0 004.242-.89 12.238 12.238 0 003.591-2.395 11.134 11.134 0 002.441-3.529 10.916 10.916 0 000-8.667 11.194 11.194 0 00-2.441-3.53 12.151 12.151 0 00-3.591-2.392 10.48 10.48 0 00-4.242-.893 9.949 9.949 0 00-4.287.942 12.84 12.84 0 00-3.544 2.49 11.663 11.663 0 00-2.444 3.581 10.192 10.192 0 00-.9 4.134" fill="#ed7b23"/></g><g data-name="Group 12"><path data-name="Path 17" d="M115.921 38.235a.846.846 0 11.841-.844.849.849 0 01-.841.844zm0-1.632a.786.786 0 100 1.571.786.786 0 000-1.571z" fill="#0067ab"/></g><g data-name="Group 13"><path data-name="Path 18" d="M62.996 15.132a21.94 21.94 0 019.174 1.992 26.24 26.24 0 017.734 5.323 26.533 26.533 0 015.337 7.668 21.507 21.507 0 011.99 9.111 4.872 4.872 0 01-1.941 4.083 7.3 7.3 0 01-4.835 1.393H53.922q3.286 5.675 9.074 5.671a10.211 10.211 0 002.693-.3 11.5 11.5 0 001.945-.7 17.592 17.592 0 011.7-.694 5.821 5.821 0 011.942-.3 6.721 6.721 0 015.937 3.933 6.345 6.345 0 01.5 3.532 6.213 6.213 0 01-1.749 3.481 15.458 15.458 0 01-5.978 3.038 31.428 31.428 0 01-6.985.954 20.3 20.3 0 01-9.173-1.75 25.313 25.313 0 01-7.734-5.274 24.864 24.864 0 01-5.285-7.814 22.933 22.933 0 01-1.947-9.259 22.01 22.01 0 011.947-9.059 25.469 25.469 0 0112.914-13.043 22.207 22.207 0 019.278-1.992m9.076 18.519a10.465 10.465 0 00-14.216-4.326 10.569 10.569 0 00-3.934 4.326z" fill="#fff"/></g><g data-name="Group 14"><path data-name="Path 19" d="M118.67 13.81a23.448 23.448 0 018.432 2.586 24 24 0 016.786 5.327 25.451 25.451 0 014.486 7.368 23.41 23.41 0 011.643 8.714v17.614a6.083 6.083 0 01-1.994 4.585 6.4 6.4 0 01-10.078-1.294 5.826 5.826 0 00-.9.447 9.127 9.127 0 01-.8.45 27.012 27.012 0 01-4.881 1.69 24.029 24.029 0 01-5.486.6 23.112 23.112 0 01-13.366-4.035 24.872 24.872 0 01-8.778-10.4 26.946 26.946 0 01-1.549-4.676 23.113 23.113 0 010-9.961 26.928 26.928 0 011.549-4.677 24.493 24.493 0 018.778-10.458 23.347 23.347 0 0113.366-3.977h1.448a9.762 9.762 0 011.343.1m-2.892 35.141a11.207 11.207 0 004.34-.848 10.845 10.845 0 003.542-2.335 11.418 11.418 0 002.389-3.539 10.863 10.863 0 00.9-4.424 10.416 10.416 0 00-.9-4.233 11.658 11.658 0 00-2.439-3.587 11.871 11.871 0 00-3.59-2.436 10.427 10.427 0 00-4.242-.9 10.063 10.063 0 00-4.19.9 11.914 11.914 0 00-3.539 2.436 11.728 11.728 0 00-2.445 3.587 10.379 10.379 0 00-.9 4.233 10.175 10.175 0 00.949 4.328 11.8 11.8 0 002.494 3.535 12.29 12.29 0 003.539 2.387 9.941 9.941 0 004.091.9" fill="#ed7b23"/><path data-name="Path 20" d="M133.531 62.564a6.951 6.951 0 01-5.816-3.02 5.09 5.09 0 00-.317.178 9.579 9.579 0 01-.85.478 27.818 27.818 0 01-5.025 1.742 24.8 24.8 0 01-5.644.622 23.879 23.879 0 01-13.742-4.152 25.647 25.647 0 01-9.01-10.679 27.6 27.6 0 01-1.589-4.8 23.769 23.769 0 010-10.258 27.831 27.831 0 011.588-4.794 25.238 25.238 0 019.011-10.742 24.113 24.113 0 0113.741-4.093h1.448a10.614 10.614 0 011.435.1 24.2 24.2 0 018.653 2.658 24.771 24.771 0 016.974 5.476 26.216 26.216 0 014.6 7.56 24.2 24.2 0 011.691 8.96v17.615a6.748 6.748 0 01-2.2 5.065 7.058 7.058 0 01-4.948 2.084zm-5.327-4.673l.3.455a5.728 5.728 0 009.059 1.176 5.4 5.4 0 001.787-4.1V37.805a22.866 22.866 0 00-1.6-8.47 24.86 24.86 0 00-4.368-7.175 23.407 23.407 0 00-6.6-5.177 22.847 22.847 0 00-8.191-2.513 9.354 9.354 0 00-1.269-.1h-1.448a22.793 22.793 0 00-12.991 3.864 23.926 23.926 0 00-8.543 10.178 26.3 26.3 0 00-1.503 4.563 22.415 22.415 0 000 9.664 26.412 26.412 0 001.509 4.558 24.315 24.315 0 008.546 10.122 22.554 22.554 0 0012.986 3.917 23.449 23.449 0 005.332-.584 26.451 26.451 0 004.754-1.646 8.46 8.46 0 00.722-.406 6.635 6.635 0 011.008-.505zm-12.426-8.275a10.637 10.637 0 01-4.365-.955 13.034 13.034 0 01-3.731-2.516 12.537 12.537 0 01-2.635-3.733 10.9 10.9 0 01-1.009-4.607 11.056 11.056 0 01.955-4.5 12.464 12.464 0 012.581-3.788 12.644 12.644 0 013.74-2.573 11.061 11.061 0 018.976 0 12.6 12.6 0 013.79 2.572 12.379 12.379 0 012.582 3.794 11.1 11.1 0 01.957 4.5 11.527 11.527 0 01-.959 4.691 12.085 12.085 0 01-2.528 3.74 11.5 11.5 0 01-3.758 2.48 11.887 11.887 0 01-4.596.895zm0-22.3a9.44 9.44 0 00-3.913.838 11.333 11.333 0 00-3.345 2.3 11.113 11.113 0 00-2.3 3.384 9.72 9.72 0 00-.845 3.966 9.577 9.577 0 00.888 4.05 11.2 11.2 0 002.354 3.337 11.64 11.64 0 003.347 2.257 9.957 9.957 0 007.9.041 10.21 10.21 0 003.326-2.192 10.8 10.8 0 002.25-3.334 10.232 10.232 0 00.848-4.159 9.778 9.778 0 00-.848-3.966 10.879 10.879 0 00-2.3-3.386 11.255 11.255 0 00-3.385-2.3 9.812 9.812 0 00-3.977-.836z" fill="#fff"/></g><g data-name="Group 15"><path data-name="Path 21" d="M169.329 64.855a23.237 23.237 0 01-9.448-2 26.435 26.435 0 01-7.924-5.36 26.091 26.091 0 01-5.48-7.862 22.84 22.84 0 01-2.055-9.535V6.758a5.73 5.73 0 01.67-2.652 8.367 8.367 0 011.634-2.161 7.7 7.7 0 012.238-1.474 5.451 5.451 0 012.668-.451 2.1 2.1 0 01.342-.018 5.732 5.732 0 012.373.521 8.782 8.782 0 012.327 1.572 6.737 6.737 0 011.607 2.37 7.5 7.5 0 01.546 2.788v10.38a23.826 23.826 0 016.465-1.932 26.139 26.139 0 017.628 0 26.486 26.486 0 017.366 2.25 26.214 26.214 0 016.655 4.543 25.843 25.843 0 015.4 7.942 24.811 24.811 0 011.8 9.666 23.631 23.631 0 01-2 9.63 25.987 25.987 0 01-5.379 7.864 25.181 25.181 0 01-7.887 5.317 23.949 23.949 0 01-9.546 1.942zM151.17 1.33a4.173 4.173 0 00-1.673.36 6.263 6.263 0 00-1.852 1.218 7.037 7.037 0 00-1.369 1.813 4.415 4.415 0 00-.519 2.037v33.344a21.516 21.516 0 001.937 8.987 24.754 24.754 0 005.2 7.464 25.108 25.108 0 007.527 5.091 22.631 22.631 0 0017.919.05 23.9 23.9 0 007.472-5.036 24.689 24.689 0 005.1-7.464 22.325 22.325 0 001.886-9.092 23.493 23.493 0 00-1.695-9.151 24.526 24.526 0 00-5.1-7.509 24.688 24.688 0 00-20.519-6.426 22.609 22.609 0 00-7.022 2.272l-.973.5V7.253a6.1 6.1 0 00-.451-2.3 5.348 5.348 0 00-1.287-1.9 7.427 7.427 0 00-1.965-1.328 4.378 4.378 0 00-2.162-.385c-.223-.006-.338-.01-.454-.01zm18.159 50.585a11 11 0 01-4.563-.95 13.024 13.024 0 01-3.733-2.523 11.625 11.625 0 01-2.591-3.74 11.347 11.347 0 01-.95-4.6 10.9 10.9 0 01.95-4.4 12.358 12.358 0 012.582-3.783 13.6 13.6 0 013.728-2.621 11.081 11.081 0 019.087-.059 12.951 12.951 0 013.789 2.523 11.925 11.925 0 012.586 3.741 11.592 11.592 0 010 9.2 11.874 11.874 0 01-2.587 3.737 13 13 0 01-3.788 2.527 11.147 11.147 0 01-4.51.948zm0-22.295a9.329 9.329 0 00-4 .877 12.233 12.233 0 00-3.358 2.361 11.024 11.024 0 00-2.3 3.376 9.59 9.59 0 00-.839 3.868 10.044 10.044 0 00.839 4.069 10.329 10.329 0 002.3 3.317 11.732 11.732 0 003.354 2.267 10.029 10.029 0 007.985 0 11.659 11.659 0 003.4-2.264 10.543 10.543 0 002.293-3.318 10.26 10.26 0 000-8.134 10.613 10.613 0 00-2.3-3.323 11.465 11.465 0 00-3.394-2.258 9.873 9.873 0 00-3.98-.838z" fill="#fff"/></g><g data-name="Group 16"><path data-name="Path 22" d="M203.937 64.295a6.205 6.205 0 01-4.49-1.739 6.871 6.871 0 01-1.992-4.631V39.503a22.385 22.385 0 012.042-9.008 24.126 24.126 0 0112.771-12.339 26.156 26.156 0 019.229-2.045 6.2 6.2 0 014.64 1.892 7.1 7.1 0 012.046 4.58 6.085 6.085 0 01-1.9 4.534 6.821 6.821 0 01-4.687 1.941 10.853 10.853 0 00-7.78 3.182 11.568 11.568 0 00-2.392 3.529 10.919 10.919 0 00-.9 4.429v18.128a6.221 6.221 0 01-6.582 5.969" fill="#fff"/></g><g data-name="Group 17"><path data-name="Path 23" d="M253.515 16.013a22 22 0 019.177 1.99 26.19 26.19 0 0113.064 12.992 21.485 21.485 0 012 9.107 4.861 4.861 0 01-1.943 4.08 7.256 7.256 0 01-4.843 1.4h-26.533q3.3 5.673 9.078 5.669a10.472 10.472 0 002.692-.291 12.928 12.928 0 001.945-.7 17.324 17.324 0 011.7-.7 5.778 5.778 0 011.948-.3 6.673 6.673 0 013.64 1.193 6.867 6.867 0 012.293 2.736 6.355 6.355 0 01.5 3.532 6.2 6.2 0 01-1.744 3.485 15.5 15.5 0 01-5.979 3.041 31.644 31.644 0 01-6.987.938 20.236 20.236 0 01-9.177-1.735 25.352 25.352 0 01-7.732-5.281 24.927 24.927 0 01-5.284-7.811 22.948 22.948 0 01-1.945-9.261 22.044 22.044 0 011.945-9.055 25.506 25.506 0 0112.907-13.039 22.244 22.244 0 019.276-1.99m9.078 18.517a10.045 10.045 0 00-18.156 0z" fill="#fff"/></g><g data-name="Group 18"><path data-name="Path 24" d="M306.385 16.013a22.019 22.019 0 019.173 1.99 26.232 26.232 0 0113.067 12.992 21.561 21.561 0 012 9.107 4.856 4.856 0 01-1.953 4.08 7.229 7.229 0 01-4.837 1.4h-26.529q3.288 5.673 9.079 5.669a10.53 10.53 0 002.692-.291 12.791 12.791 0 001.941-.7 16.916 16.916 0 011.7-.7 5.807 5.807 0 011.948-.3 6.673 6.673 0 013.639 1.193 6.8 6.8 0 012.3 2.736 6.381 6.381 0 01.495 3.532 6.222 6.222 0 01-1.744 3.485 15.49 15.49 0 01-5.988 3.041 31.487 31.487 0 01-6.975.938 20.273 20.273 0 01-9.184-1.735 25.4 25.4 0 01-7.73-5.281 24.954 24.954 0 01-5.282-7.811 23 23 0 01-1.946-9.261 22.094 22.094 0 011.946-9.055 25.779 25.779 0 015.236-7.717 25.515 25.515 0 017.679-5.327 22.243 22.243 0 019.281-1.99m9.069 18.517a10.417 10.417 0 00-3.984-4.332 10.005 10.005 0 00-14.164 4.332z" fill="#fff"/></g><g data-name="Group 19"><path data-name="Path 25" d="M404.098 16.013a22.01 22.01 0 019.18 1.99 26.219 26.219 0 0113.068 12.992 21.59 21.59 0 012 9.107 4.87 4.87 0 01-1.945 4.08 7.247 7.247 0 01-4.841 1.4h-26.535q3.293 5.673 9.073 5.669a10.526 10.526 0 002.7-.291 12.971 12.971 0 001.948-.7 17.2 17.2 0 011.695-.7 5.767 5.767 0 011.946-.3 6.651 6.651 0 013.634 1.193 6.758 6.758 0 012.3 2.736 6.321 6.321 0 01.5 3.532 6.172 6.172 0 01-1.744 3.485 15.493 15.493 0 01-5.987 3.041 31.511 31.511 0 01-6.983.938 20.219 20.219 0 01-9.174-1.735 25.319 25.319 0 01-7.73-5.281 24.993 24.993 0 01-5.29-7.811 23.078 23.078 0 01-1.94-9.261 22.168 22.168 0 011.94-9.055 25.865 25.865 0 015.24-7.717 25.5 25.5 0 017.681-5.327 22.241 22.241 0 019.273-1.99m9.079 18.517a10.389 10.389 0 00-3.99-4.332 10.557 10.557 0 00-5.089-1.243 9.5 9.5 0 00-9.073 5.575z" fill="#fff"/></g><g data-name="Group 20"><path data-name="Path 26" d="M17.861 63.735a8.2 8.2 0 01-1.036-.061 18.24 18.24 0 01-3.863-.428 17.654 17.654 0 01-5.737-2.152 16.951 16.951 0 01-6.339-6.523 8.36 8.36 0 01-.6-1.406A5.332 5.332 0 010 51.439a6 6 0 015.958-5.865 5.128 5.128 0 013.359 1.123A9.857 9.857 0 0111.3 49.02a5.637 5.637 0 001.866 2 7.828 7.828 0 001.971 1.015 6.8 6.8 0 001.718.274c.151.007.311.016.489.016.636 0 1.457-.049 2.456-.139a5.2 5.2 0 002.343-.927 2.66 2.66 0 00.916-1.99 2.185 2.185 0 00-.789-1.7 5.89 5.89 0 00-2.352-1.081l-4.973-.932a22.717 22.717 0 01-5.3-1.47 14.276 14.276 0 01-4.694-3.173 15.646 15.646 0 01-3.247-4.869 13.561 13.561 0 01-1.076-5.937 14.092 14.092 0 011.253-5.656 13.535 13.535 0 013.313-4.545 16.231 16.231 0 014.856-2.965 17.854 17.854 0 014.087-1.016 20.43 20.43 0 013.246-.243h.357a18.907 18.907 0 013.966.439 17.862 17.862 0 015.663 2.094c.635.263 1.768.919 4.262 3.359a10.138 10.138 0 01.9 1.3 7.526 7.526 0 01.7 1.535 5.816 5.816 0 01-.83 4.558 5.731 5.731 0 01-3.817 2.578 6.41 6.41 0 01-1.259.13 4.618 4.618 0 01-2.2-.534 13.38 13.38 0 01-2.4-1.723 8.555 8.555 0 00-2.081-1.733 6.13 6.13 0 00-2.753-.517h-.281a9.423 9.423 0 00-2.866.359 3.949 3.949 0 00-1.778 1.124 2.679 2.679 0 00-.628 1.806 2.637 2.637 0 00.818 2.211 4.376 4.376 0 002.623 1.151l4.63.718a27.439 27.439 0 016.786 1.976 14.19 14.19 0 014.85 3.282 10.7 10.7 0 012.29 3.989 17.237 17.237 0 01.586 5.182 15.491 15.491 0 01-1.324 5.6 15.021 15.021 0 01-3.289 4.744 15.492 15.492 0 01-4.839 3.161 15.2 15.2 0 01-5.783 1.189l-1.11.05a11.96 11.96 0 01-.715.025" fill="#fff"/></g><g data-name="Group 21"><path data-name="Path 27" d="M372.137 19.139a5.4 5.4 0 013.9 1.6 5.5 5.5 0 011.65 3.786 5.223 5.223 0 01-1.65 3.877c-.29.281-.58.563-.871.842s-.573.557-.858.843c-3.238 3.145-9.912 9.339-13.116 12.458s-6.46 6.247-9.755 9.394h17.248a6 6 0 013.9 1.686 5.692 5.692 0 011.648 3.961 5.512 5.512 0 01-1.648 3.79 5.812 5.812 0 01-3.9 1.6h-30.936a5.389 5.389 0 01-3.9-1.6 4.89 4.89 0 01-1.649-3.79 4.346 4.346 0 011.567-3.794l24.591-23.705h-17.161a6.01 6.01 0 01-3.9-1.685 4.508 4.508 0 01-1.65-3.877 4.882 4.882 0 011.65-3.786 5.234 5.234 0 013.9-1.6z" fill="#fff"/></g><g data-name="Group 22"><path data-name="Path 28" d="M118.937 37.365a2.969 2.969 0 11-2.969-2.967 2.963 2.963 0 012.969 2.967" fill="#ed7b23"/></g><g data-name="Group 23"><path data-name="Path 29" d="M172.177 40.048a2.972 2.972 0 11-2.971-2.963 2.971 2.971 0 012.971 2.963" fill="#ed7b23"/></g></g><g data-name="Group 25" fill="#ea7b23" stroke="#fff" stroke-miterlimit="10" stroke-width=".878"><path data-name="Path 30" d="M44.23 100.023a9.132 9.132 0 01-1.176.922 6.015 6.015 0 01-1.183.588 7.183 7.183 0 01-1.444.353 10.116 10.116 0 01-4.945-.459 6.65 6.65 0 01-2.355-1.649 8.2 8.2 0 01-1.629-2.758 11.2 11.2 0 01-.62-3.88 11.6 11.6 0 01.6-3.865 7.974 7.974 0 011.6-2.748 6.7 6.7 0 012.38-1.666 8.22 8.22 0 013.162-.59 7.846 7.846 0 014.043.954 10.941 10.941 0 011.1.7 2.73 2.73 0 003.252.278 2.4 2.4 0 00.7-.705l2.055-2.845-1.067-1a14.507 14.507 0 00-4.361-2.8 16.243 16.243 0 00-11.683.082 13.783 13.783 0 00-4.723 3.2 14.371 14.371 0 00-3.042 4.886 17.2 17.2 0 00-1.064 6.128 17.841 17.841 0 001.019 6.108 14.392 14.392 0 002.929 4.877 13.25 13.25 0 004.605 3.2 15.035 15.035 0 005.9 1.132 15.462 15.462 0 006.376-1.212 13.2 13.2 0 004.576-3.391l.984-1.13-2.463-2.643a2.462 2.462 0 00-3.526-.067z"/><path data-name="Path 31" d="M63.527 78.105l-12.076 30.052h5.28a2.942 2.942 0 002.775-1.921l2.1-5.388h9.761l2.1 5.407a3.125 3.125 0 00.945 1.283 2.836 2.836 0 001.843.619h5.282L69.46 78.105zm5.533 16.8h-5.148l2.575-6.629z"/><path data-name="Path 32" d="M99.431 95.151a9.465 9.465 0 002.521-2.028 8.631 8.631 0 001.61-2.733 9.317 9.317 0 00.553-3.217 9.526 9.526 0 00-.713-3.717 7.637 7.637 0 00-2.282-2.987 10.137 10.137 0 00-3.667-1.792 18.441 18.441 0 00-4.848-.572h-9.262v30.052h6.961V97.006h1.083c.2 0 .317.015.35.011a1.038 1.038 0 01.117.143l6.9 9.439a3.265 3.265 0 002.889 1.558h6.524l-9.364-12.682c.217-.1.427-.211.628-.324zm-2.2-7.717a3.851 3.851 0 01-.277 1.5 2.851 2.851 0 01-.778 1.053 4.116 4.116 0 01-1.442.758 7.614 7.614 0 01-2.277.3h-2.151v-6.754h2.3a6.275 6.275 0 013.7.864 2.638 2.638 0 01.923 2.279z"/><path data-name="Path 33" d="M115.376 86.592h0a7.067 7.067 0 012.533-1.7 9.359 9.359 0 013.483-.617 11.4 11.4 0 012.338.206 9.67 9.67 0 011.677.5 7.393 7.393 0 011.149.578c.41.265.776.489 1.081.666a2.736 2.736 0 002.141.355 2.764 2.764 0 001.611-1.2l1.771-2.819-1.03-.939a15.031 15.031 0 00-2.089-1.586 13.6 13.6 0 00-2.455-1.209 15.272 15.272 0 00-2.84-.758 19.436 19.436 0 00-3.243-.257 17.369 17.369 0 00-6.3 1.1 13.647 13.647 0 00-8.03 8.062 17.2 17.2 0 00-1.075 6.17 16.724 16.724 0 001.11 6.148 13.848 13.848 0 003.228 4.9 14.576 14.576 0 005.017 3.16 17.948 17.948 0 006.446 1.111 18.594 18.594 0 005.533-.795 16.849 16.849 0 004.8-2.411l.694-.5V91.975h-11.589v3.717a2.321 2.321 0 00.736 1.715 2.456 2.456 0 001.721.661h2.507v3.171a12.46 12.46 0 01-1.633.6 11.569 11.569 0 01-6.554-.263 7.217 7.217 0 01-2.645-1.717 7.79 7.79 0 01-1.694-2.788 11.519 11.519 0 01-.621-3.934 11.389 11.389 0 01.6-3.816 7.682 7.682 0 011.622-2.729z"/><path data-name="Path 34" d="M160.383 82.153a13.83 13.83 0 00-4.757-3.213 16.637 16.637 0 00-12.082 0 13.794 13.794 0 00-4.746 3.213 14.375 14.375 0 00-3.054 4.886 17.995 17.995 0 000 12.2 14.317 14.317 0 003.055 4.877 13.776 13.776 0 004.749 3.195 16.794 16.794 0 0012.071 0 13.794 13.794 0 004.763-3.194 14.362 14.362 0 003.055-4.878 18.037 18.037 0 000-12.2 14.47 14.47 0 00-3.054-4.886zm-2.956 10.987a11.881 11.881 0 01-.581 3.866 7.727 7.727 0 01-1.568 2.721 6.541 6.541 0 01-2.4 1.649 9.439 9.439 0 01-6.587 0 6.651 6.651 0 01-2.406-1.652 7.7 7.7 0 01-1.573-2.717 13.15 13.15 0 010-7.744 7.683 7.683 0 011.569-2.722 6.794 6.794 0 012.419-1.666 9.292 9.292 0 016.575 0 6.683 6.683 0 012.4 1.661 7.739 7.739 0 011.567 2.729 11.954 11.954 0 01.585 3.875z"/><path data-name="Path 35" d="M197.211 97.44a15.867 15.867 0 00.752-4.7l.013-1.68h-3.727a2.342 2.342 0 00-1.767.758 2.646 2.646 0 00-.645 1.514 11.718 11.718 0 01-.494 2.392 10.26 10.26 0 01-.075.23l-6.013-6.087a14.206 14.206 0 01-1.093-1.2 6.522 6.522 0 01-.662-.987 3.7 3.7 0 01-.333-.842 3.424 3.424 0 01-.1-.841 2.564 2.564 0 01.167-.95 1.94 1.94 0 01.441-.679 2.127 2.127 0 01.723-.457 2.966 2.966 0 011.928-.039 2.126 2.126 0 011.058.937 3.918 3.918 0 01.338.835 2.436 2.436 0 002.262 1.636 2.258 2.258 0 00.525-.059l3.518-.694-.1-1.458a7.27 7.27 0 00-.761-2.786 7.636 7.636 0 00-1.78-2.321 8.589 8.589 0 00-2.6-1.567 10.1 10.1 0 00-6.916.033 8.484 8.484 0 00-2.824 1.743 7.635 7.635 0 00-1.831 2.652 8.26 8.26 0 00-.624 3.192 9.158 9.158 0 00.664 3.43 11.487 11.487 0 00.795 1.583q-.465.286-.892.6a11.527 11.527 0 00-2.176 2.079 9.7 9.7 0 00-1.477 2.6 8.886 8.886 0 00.32 6.917 8.929 8.929 0 002.254 2.871 9.872 9.872 0 003.1 1.762 10.531 10.531 0 003.487.6 14.266 14.266 0 005.718-1.138 15.444 15.444 0 003.3-1.946l1.6 1.6a3.754 3.754 0 001.342.946 4.129 4.129 0 001.477.24h7.234l-7.5-7.589a16.442 16.442 0 001.374-3.13zm-9.719 3.72a8.49 8.49 0 01-1.16.645 7.388 7.388 0 01-3.082.613 4.111 4.111 0 01-1.358-.232 3.4 3.4 0 01-1.125-.645 3.056 3.056 0 01-1.054-2.434 4.036 4.036 0 01.719-2.317 5.473 5.473 0 011.348-1.355z"/><path data-name="Path 36" d="M231.537 99.304a2.638 2.638 0 00-1.765.718 9.166 9.166 0 01-1.181.924 5.79 5.79 0 01-1.182.587 7.173 7.173 0 01-1.443.353 10.112 10.112 0 01-4.944-.459 6.657 6.657 0 01-2.356-1.649 8.213 8.213 0 01-1.628-2.758 11.225 11.225 0 01-.62-3.88 11.635 11.635 0 01.6-3.865 7.976 7.976 0 011.594-2.748 6.71 6.71 0 012.385-1.666 8.183 8.183 0 013.159-.59 7.83 7.83 0 014.041.954 11.091 11.091 0 011.106.7 2.743 2.743 0 003.251.279 2.481 2.481 0 00.7-.706l2.059-2.846-1.071-1a14.5 14.5 0 00-4.361-2.8 16.487 16.487 0 00-11.683.082 13.786 13.786 0 00-4.723 3.2 14.415 14.415 0 00-3.042 4.886 17.216 17.216 0 00-1.063 6.128 17.763 17.763 0 001.019 6.108 14.324 14.324 0 002.929 4.878 13.233 13.233 0 004.605 3.2 15.032 15.032 0 005.9 1.132 15.458 15.458 0 006.378-1.213 13.2 13.2 0 004.574-3.39l.983-1.13-2.463-2.642a2.369 2.369 0 00-1.758-.787z"/><path data-name="Path 37" d="M262.551 82.153a13.792 13.792 0 00-4.757-3.213 16.632 16.632 0 00-12.08 0 13.776 13.776 0 00-4.746 3.213 14.375 14.375 0 00-3.054 4.886 17.995 17.995 0 000 12.2 14.279 14.279 0 003.055 4.877 13.767 13.767 0 004.748 3.195 16.794 16.794 0 0012.071 0 13.78 13.78 0 004.762-3.194 14.318 14.318 0 003.053-4.877 18.005 18.005 0 000-12.2 14.418 14.418 0 00-3.052-4.887zm-2.954 10.987a11.907 11.907 0 01-.581 3.866 7.758 7.758 0 01-1.569 2.722 6.562 6.562 0 01-2.4 1.649 9.45 9.45 0 01-6.587 0 6.654 6.654 0 01-2.41-1.654 7.633 7.633 0 01-1.569-2.715 13.153 13.153 0 010-7.745 7.629 7.629 0 011.569-2.723 6.775 6.775 0 012.42-1.665 9.292 9.292 0 016.575 0 6.66 6.66 0 012.4 1.662 7.742 7.742 0 011.568 2.728 11.981 11.981 0 01.584 3.875z"/><path data-name="Path 38" d="M285.944 96.011a7.86 7.86 0 01-.388 2.54 5.2 5.2 0 01-1.047 1.827 4.644 4.644 0 01-1.631 1.15 6.587 6.587 0 01-4.655-.008 4.681 4.681 0 01-1.649-1.161 5.19 5.19 0 01-1.047-1.829 7.8 7.8 0 01-.387-2.537V78.105h-6.961v17.906a13.808 13.808 0 00.846 4.871 11.6 11.6 0 002.485 3.993 11.485 11.485 0 003.941 2.652 14.2 14.2 0 0010.2 0 11.36 11.36 0 003.934-2.656 11.592 11.592 0 002.473-3.986 13.824 13.824 0 00.848-4.873V78.105h-6.96z"/><path data-name="Path 39" d="M312.166 95.152a9.386 9.386 0 002.521-2.027 8.564 8.564 0 001.612-2.731 9.316 9.316 0 00.554-3.221 9.505 9.505 0 00-.712-3.713 7.581 7.581 0 00-2.282-2.99 10.105 10.105 0 00-3.667-1.793 18.454 18.454 0 00-4.849-.572h-9.261v30.052h6.955V97.006h1.083c.2 0 .318.009.351.011a1.186 1.186 0 01.117.143l6.9 9.432a3.251 3.251 0 002.889 1.565h6.526l-9.366-12.682q.328-.153.629-.323zm-2.2-7.718a3.837 3.837 0 01-.277 1.492 2.846 2.846 0 01-.78 1.057 4.132 4.132 0 01-1.44.758 7.621 7.621 0 01-2.278.3h-2.154v-6.754h2.3a6.271 6.271 0 013.7.863 2.64 2.64 0 01.932 2.284z"/><path data-name="Rectangle 12" d="M323.173 78.105h6.977v30.051h-6.977z"/><path data-name="Path 40" d="M340.645 96.093h10.456v-6.168h-10.456v-5.542h12.911v-6.278h-19.891v30.051h19.88l.039-6.279h-12.939z"/><path data-name="Path 41" d="M373.384 95.152a9.463 9.463 0 002.526-2.029 8.608 8.608 0 001.608-2.729 9.308 9.308 0 00.554-3.221 9.531 9.531 0 00-.712-3.713 7.582 7.582 0 00-2.282-2.991 10.116 10.116 0 00-3.666-1.792 18.473 18.473 0 00-4.85-.572h-9.261v30.052h6.959V97.006h1.083c.205 0 .319.012.351.011a1.188 1.188 0 01.117.143l6.895 9.432a3.251 3.251 0 002.888 1.565h6.527l-9.361-12.682c.216-.1.424-.211.624-.323zm-2.2-7.718a3.833 3.833 0 01-.276 1.491 2.844 2.844 0 01-.784 1.06 4.075 4.075 0 01-1.437.756 7.609 7.609 0 01-2.277.3h-2.153v-6.754h2.3a6.273 6.273 0 013.7.863 2.639 2.639 0 01.93 2.284z"/><path data-name="Path 42" d="M403.799 94.856h0a7.617 7.617 0 00-1.873-2.454 10.014 10.014 0 00-2.47-1.554 29.432 29.432 0 00-2.509-.981l-2.37-.795a9.75 9.75 0 01-1.756-.768 3.094 3.094 0 01-.957-.815 1.394 1.394 0 01-.218-.854 2.5 2.5 0 01.188-.987 1.981 1.981 0 01.517-.716 3.006 3.006 0 011-.557 5.939 5.939 0 013.241-.009 6.966 6.966 0 011.256.562q.564.332.935.6a2.642 2.642 0 003.186.2 3.124 3.124 0 00.887-1.018l1.448-2.821-.9-.858a11.412 11.412 0 00-3.808-2.4 13.026 13.026 0 00-8.866-.085 9.57 9.57 0 00-3.149 1.992 9.1 9.1 0 00-1.966 9.954 7.665 7.665 0 001.857 2.55 9.237 9.237 0 002.51 1.594c.814.353 1.662.671 2.521.945l2.368.749a8.33 8.33 0 011.721.737 2.891 2.891 0 01.932.824 1.777 1.777 0 01.241 1.016 3.511 3.511 0 01-.247 1.356 2.6 2.6 0 01-.664.951 3.273 3.273 0 01-1.137.651 6.532 6.532 0 01-3.219.11 6.29 6.29 0 01-1.159-.385 5.675 5.675 0 01-.9-.507c-.318-.221-.6-.427-.845-.613q-.459-.347-.816-.573a2.575 2.575 0 00-2.845-.045 3.135 3.135 0 00-.876.872l-1.715 2.8.877.924a12.933 12.933 0 004.2 2.927 13.421 13.421 0 005.435 1.083 12.17 12.17 0 004.421-.768 9.924 9.924 0 003.4-2.157 9.279 9.279 0 002.139-3.26 10.761 10.761 0 00.71-3.892 8.049 8.049 0 00-.725-3.525z"/></g></g></svg>